catching_a_ball coordinate motion generated from LLM joint_angles
version=1
nRows=18
nColumns=29
inDegrees=yes
endheader
time	elbow_flexion	pro_sup	rotaxis_auxprfem_r3	deviation	auxprrud_auxdrfem_r3	auxdrfem_auxdrrud_r1	MCP2_lateral	MCP2_flex	PIP_flex	DIP_flex	MCP2M_lateral	MCP2M_flex	MPIP_flex	MDIP_flex	RCP2M_lateral	RCP2M_flex	RPIP_flex	RDIP_flex	LCP2M_lateral	LCP2M_flex	LPIP_flex	LDIP_flex	thumb_abd	thumb_flex	TCP2M_lateral	TCP2M_flex	TCP2M2_flex	flexion
0.333333	0.000000	0.000000	0.000000	8.660254	0.000000	0.000000	0.000000	51.961524	51.961524	51.961524	0.000000	51.961524	51.961524	51.961524	0.000000	38.971143	38.971143	38.971143	0.000000	38.971143	38.971143	38.971143	17.320508	38.971143	0.000000	0.000000	0.000000	17.320508
0.340000	0.000000	0.000000	0.000000	8.763067	0.000000	0.000000	0.000000	52.578401	52.578401	52.578401	0.000000	52.578401	52.578401	52.578401	0.000000	39.433801	39.433801	39.433801	0.000000	39.433801	39.433801	39.433801	17.526134	39.433801	0.000000	0.000000	0.000000	17.526134
0.346667	0.000000	0.000000	0.000000	8.862036	0.000000	0.000000	0.000000	53.172215	53.172215	53.172215	0.000000	53.172215	53.172215	53.172215	0.000000	39.879161	39.879161	39.879161	0.000000	39.879161	39.879161	39.879161	17.724072	39.879161	0.000000	0.000000	0.000000	17.724072
0.353333	0.000000	0.000000	0.000000	8.957118	0.000000	0.000000	0.000000	53.742706	53.742706	53.742706	0.000000	53.742706	53.742706	53.742706	0.000000	40.307029	40.307029	40.307029	0.000000	40.307029	40.307029	40.307029	17.914235	40.307029	0.000000	0.000000	0.000000	17.914235
0.360000	0.000000	0.000000	0.000000	9.048271	0.000000	0.000000	0.000000	54.289623	54.289623	54.289623	0.000000	54.289623	54.289623	54.289623	0.000000	40.717217	40.717217	40.717217	0.000000	40.717217	40.717217	40.717217	18.096541	40.717217	0.000000	0.000000	0.000000	18.096541
0.366667	0.000000	0.000000	0.000000	9.135455	0.000000	0.000000	0.000000	54.812727	54.812727	54.812727	0.000000	54.812727	54.812727	54.812727	0.000000	41.109546	41.109546	41.109546	0.000000	41.109546	41.109546	41.109546	18.270909	41.109546	0.000000	0.000000	0.000000	18.270909
0.373333	0.000000	0.000000	0.000000	9.218632	0.000000	0.000000	0.000000	55.311789	55.311789	55.311789	0.000000	55.311789	55.311789	55.311789	0.000000	41.483842	41.483842	41.483842	0.000000	41.483842	41.483842	41.483842	18.437263	41.483842	0.000000	0.000000	0.000000	18.437263
0.380000	0.000000	0.000000	0.000000	9.297765	0.000000	0.000000	0.000000	55.786589	55.786589	55.786589	0.000000	55.786589	55.786589	55.786589	0.000000	41.839942	41.839942	41.839942	0.000000	41.839942	41.839942	41.839942	18.595530	41.839942	0.000000	0.000000	0.000000	18.595530
0.386667	0.000000	0.000000	0.000000	9.372820	0.000000	0.000000	0.000000	56.236919	56.236919	56.236919	0.000000	56.236919	56.236919	56.236919	0.000000	42.177690	42.177690	42.177690	0.000000	42.177690	42.177690	42.177690	18.745640	42.177690	0.000000	0.000000	0.000000	18.745640
0.393333	0.000000	0.000000	0.000000	9.443764	0.000000	0.000000	0.000000	56.662582	56.662582	56.662582	0.000000	56.662582	56.662582	56.662582	0.000000	42.496937	42.496937	42.496937	0.000000	42.496937	42.496937	42.496937	18.887527	42.496937	0.000000	0.000000	0.000000	18.887527
0.400000	0.000000	0.000000	0.000000	9.510565	0.000000	0.000000	0.000000	57.063391	57.063391	57.063391	0.000000	57.063391	57.063391	57.063391	0.000000	42.797543	42.797543	42.797543	0.000000	42.797543	42.797543	42.797543	19.021130	42.797543	0.000000	0.000000	0.000000	19.021130
0.406667	0.000000	0.000000	0.000000	9.573195	0.000000	0.000000	0.000000	57.439170	57.439170	57.439170	0.000000	57.439170	57.439170	57.439170	0.000000	43.079377	43.079377	43.079377	0.000000	43.079377	43.079377	43.079377	19.146390	43.079377	0.000000	0.000000	0.000000	19.146390
0.413333	0.000000	0.000000	0.000000	9.631626	0.000000	0.000000	0.000000	57.789754	57.789754	57.789754	0.000000	57.789754	57.789754	57.789754	0.000000	43.342316	43.342316	43.342316	0.000000	43.342316	43.342316	43.342316	19.263251	43.342316	0.000000	0.000000	0.000000	19.263251
0.420000	0.000000	0.000000	0.000000	9.685832	0.000000	0.000000	0.000000	58.114990	58.114990	58.114990	0.000000	58.114990	58.114990	58.114990	0.000000	43.586242	43.586242	43.586242	0.000000	43.586242	43.586242	43.586242	19.371663	43.586242	0.000000	0.000000	0.000000	19.371663
0.426667	0.000000	0.000000	0.000000	9.735789	0.000000	0.000000	0.000000	58.414734	58.414734	58.414734	0.000000	58.414734	58.414734	58.414734	0.000000	43.811051	43.811051	43.811051	0.000000	43.811051	43.811051	43.811051	19.471578	43.811051	0.000000	0.000000	0.000000	19.471578
0.433333	0.000000	0.000000	0.000000	9.781476	0.000000	0.000000	0.000000	58.688856	58.688856	58.688856	0.000000	58.688856	58.688856	58.688856	0.000000	44.016642	44.016642	44.016642	0.000000	44.016642	44.016642	44.016642	19.562952	44.016642	0.000000	0.000000	0.000000	19.562952
0.440000	0.000000	0.000000	0.000000	9.822873	0.000000	0.000000	0.000000	58.937235	58.937235	58.937235	0.000000	58.937235	58.937235	58.937235	0.000000	44.202926	44.202926	44.202926	0.000000	44.202926	44.202926	44.202926	19.645745	44.202926	0.000000	0.000000	0.000000	19.645745
0.446667	0.000000	0.000000	0.000000	9.859960	0.000000	0.000000	0.000000	59.159762	59.159762	59.159762	0.000000	59.159762	59.159762	59.159762	0.000000	44.369822	44.369822	44.369822	0.000000	44.369822	44.369822	44.369822	19.719921	44.369822	0.000000	0.000000	0.000000	19.719921
